<?xml version="1.0" encoding="iso-8859-1"?>
<!-- Uploaded to: SVG Repo, www.svgrepo.com, Generator: SVG Repo Mixer Tools -->
<svg height="800px" width="800px" version="1.1" id="Layer_1" xmlns="http://www.w3.org/2000/svg" xmlns:xlink="http://www.w3.org/1999/xlink" 
	 viewBox="0 0 512 512" xml:space="preserve">
<path style="fill:#9B9AA5;" d="M342.716,259.875H169.284c-19.012,0-34.424-15.412-34.424-34.424V121.14
	C134.86,54.343,189.204,0,256,0s121.141,54.343,121.141,121.14v104.311C377.141,244.462,361.728,259.875,342.716,259.875z
	 M203.709,191.026h104.582V121.14c0-28.833-23.458-52.292-52.292-52.292s-52.291,23.457-52.291,52.292L203.709,191.026
	L203.709,191.026z"/>
<path style="fill:#C6C5CA;" d="M256,191.026h-52.291V121.14c0-28.833,23.457-52.292,52.291-52.292l0,0V0l0,0
	c-66.796,0-121.14,54.343-121.14,121.14v104.311c0,19.012,15.412,34.424,34.424,34.424H256L256,191.026L256,191.026z"/>
<path style="fill:#30767A;" d="M363.146,169.208H148.854c-42.951,0-77.894,34.944-77.894,77.895v221.357
	c0,24.007,19.531,43.539,43.538,43.539h283.003c24.007,0,43.539-19.532,43.539-43.539V247.103
	C441.04,204.152,406.098,169.208,363.146,169.208z"/>
<path style="fill:#4AB6BF;" d="M256,169.208H148.854c-42.951,0-77.894,34.944-77.894,77.895v221.357
	c0,24.007,19.531,43.539,43.538,43.539H256L256,169.208L256,169.208z"/>
<path style="fill:#1D1D1F;" d="M308.874,308.497c0-29.202-23.672-52.874-52.874-52.874s-52.874,23.672-52.874,52.874
	c0,17.374,8.381,32.79,21.32,42.427v41.999c0,17.426,14.127,31.553,31.553,31.553s31.554-14.127,31.554-31.553v-41.999
	C300.492,341.287,308.874,325.872,308.874,308.497z"/>
<path style="fill:#3E3E42;" d="M203.127,308.497c0,17.374,8.381,32.79,21.32,42.427v41.999c0,17.426,14.127,31.553,31.554,31.553
	V255.625C226.798,255.625,203.127,279.297,203.127,308.497z"/>
<path style="fill:#235559;" d="M70.96,463.599v4.862c0,24.007,19.531,43.539,43.538,43.539h283.003
	c24.007,0,43.539-19.532,43.539-43.539v-4.862H70.96z"/>
<path style="fill:#38979E;" d="M70.96,463.599v4.862c0,24.007,19.531,43.539,43.538,43.539H256v-48.401H70.96z"/>
</svg>